<svg width="40" height="28" viewBox="0 0 40 28" fill="none" xmlns="http://www.w3.org/2000/svg">
<path fill-rule="evenodd" clip-rule="evenodd" d="M0 2.33317C0 1.4127 0.746192 0.666504 1.66667 0.666504H37.2222C38.1427 0.666504 38.8889 1.4127 38.8889 2.33317C38.8889 3.25365 38.1427 3.99984 37.2222 3.99984H1.66667C0.746192 3.99984 0 3.25365 0 2.33317ZM30.6863 7.58958C31.6068 7.58958 32.3529 8.33577 32.3529 9.25625V15.9046H38.3333C39.2538 15.9046 40 16.6508 40 17.5713C40 18.4917 39.2538 19.2379 38.3333 19.2379H32.3529V25.6665C32.3529 26.587 31.6068 27.3332 30.6863 27.3332C29.7658 27.3332 29.0196 26.587 29.0196 25.6665V19.2379H23.0392C22.1187 19.2379 21.3725 18.4917 21.3725 17.5713C21.3725 16.6508 22.1187 15.9046 23.0392 15.9046H29.0196V9.25625C29.0196 8.33577 29.7658 7.58958 30.6863 7.58958ZM0 9.95222C0 9.03174 0.746192 8.28555 1.66667 8.28555H23.2222C24.1427 8.28555 24.8889 9.03174 24.8889 9.95222C24.8889 10.8727 24.1427 11.6189 23.2222 11.6189H1.66667C0.746192 11.6189 0 10.8727 0 9.95222ZM0 17.5713C0 16.6508 0.746192 15.9046 1.66667 15.9046H15.6667C16.5871 15.9046 17.3333 16.6508 17.3333 17.5713C17.3333 18.4917 16.5871 19.2379 15.6667 19.2379H1.66667C0.746192 19.2379 0 18.4917 0 17.5713Z" fill="white"/>
</svg>
