<svg width="38" height="31" viewBox="0 0 38 31" fill="none" xmlns="http://www.w3.org/2000/svg">
<path d="M36.1415 17.5749H7.1744L17.1436 27.544C17.8693 28.2698 17.8693 29.4467 17.144 30.172C16.4183 30.8977 15.2409 30.8977 14.5151 30.172L1.37393 17.0303C1.28751 16.9439 1.21038 16.8486 1.14254 16.7474C1.11141 16.7004 1.08957 16.6498 1.06263 16.601C1.03196 16.5434 0.996647 16.4886 0.972023 16.4277C0.945538 16.365 0.930672 16.2999 0.912086 16.2349C0.896751 16.1833 0.876774 16.134 0.866089 16.0811C0.841927 15.9603 0.82938 15.8385 0.82938 15.7163C0.82938 15.7149 0.829845 15.7136 0.829845 15.7122C0.830311 15.5918 0.842392 15.471 0.866089 15.3525C0.877239 15.2968 0.898144 15.2452 0.914406 15.1904C0.932529 15.1286 0.946468 15.0659 0.971558 15.0059C0.998505 14.9413 1.03475 14.8828 1.0682 14.8219C1.09329 14.7764 1.11327 14.7299 1.14207 14.6862C1.20991 14.5836 1.28798 14.4878 1.37486 14.401L14.5156 1.26068C15.2414 0.534928 16.4183 0.534927 17.144 1.26022C17.8698 1.98598 17.8698 3.16289 17.144 3.88911L7.17487 13.8578H36.1415C37.1678 13.8578 38 14.69 38 15.7163C38 16.7427 37.1678 17.5749 36.1415 17.5749Z" fill="white"/>
</svg>
