<svg width="122" height="48" viewBox="0 0 122 48" fill="none" xmlns="http://www.w3.org/2000/svg">
<path fill-rule="evenodd" clip-rule="evenodd" d="M23.4569 34.9018C23.5002 36.6536 22.5283 38.3512 20.8382 39.1563C18.543 40.2497 15.7922 39.283 14.6943 36.9973L0.452057 7.34642C-0.645857 5.06068 0.32478 2.32138 2.62004 1.22802C4.91529 0.134653 7.666 1.10127 8.76391 3.38701L15.8058 18.0476C17.7734 15.0331 21.1852 13.0396 25.0645 13.0396C31.1588 13.0396 36.0993 17.9595 36.0993 24.0286C36.0993 30.0977 31.1588 35.0176 25.0645 35.0176C24.5184 35.0176 23.9817 34.9781 23.4569 34.9018ZM25.0645 27.865C27.1921 27.865 28.9169 26.1474 28.9169 24.0286C28.9169 21.9098 27.1921 20.1922 25.0645 20.1922C22.9369 20.1922 21.2121 21.9098 21.2121 24.0286C21.2121 26.1474 22.9369 27.865 25.0645 27.865Z" fill="white"/>
<path d="M96.9028 34.9033C90.8075 34.9033 85.8662 29.9834 85.8662 23.9143C85.8662 17.8452 90.8075 12.9253 96.9028 12.9253C102.998 12.9253 107.939 17.8452 107.939 23.9143C107.939 29.9834 102.998 34.9033 96.9028 34.9033ZM96.9028 27.8648C99.0308 27.8648 100.756 26.1471 100.756 24.0283C100.756 21.9095 99.0308 20.1919 96.9028 20.1919C94.7748 20.1919 93.0498 21.9095 93.0498 24.0283C93.0498 26.1471 94.7748 27.8648 96.9028 27.8648Z" fill="white"/>
<path fill-rule="evenodd" clip-rule="evenodd" d="M121.548 7.23216C122.646 4.94642 121.675 2.20712 119.38 1.11376C117.084 0.0203952 114.333 0.987008 113.235 3.27275L98.9899 32.9236C97.8918 35.2094 98.8626 37.9487 101.158 39.042C103.454 40.1354 106.205 39.1688 107.303 36.883L121.548 7.23216Z" fill="white"/>
<path fill-rule="evenodd" clip-rule="evenodd" d="M74.1749 18.9315C75.9482 18.8887 77.6645 19.8632 78.4688 21.5512L87.6531 40.8258C88.7399 43.1067 87.7503 45.8265 85.4426 46.9008C83.1349 47.975 80.3831 46.9968 79.2963 44.7159L72.8704 31.2303L64.4601 39.6161C63.5542 40.5194 62.361 40.9703 61.1683 40.9674C59.9757 40.9703 58.7825 40.5194 57.8766 39.6161L49.4275 31.1916L42.9832 44.7159C41.8964 46.9968 39.1446 47.975 36.8369 46.9008C34.5292 45.8265 33.5395 43.1067 34.6264 40.8258L43.8107 21.5512C44.6181 19.8567 46.3445 18.8812 48.1251 18.9321C49.343 18.9093 50.568 19.3599 51.4933 20.2825L61.1683 29.9295L70.8434 20.2825C71.7594 19.3691 72.9691 18.9184 74.1749 18.9315Z" fill="white"/>
</svg>
