<svg width="113" height="112" viewBox="0 0 113 112" fill="none" xmlns="http://www.w3.org/2000/svg">
<path d="M46.4923 46.9841C43.3003 46.9841 40.7803 49.7841 40.7803 53.2001C40.7803 56.6161 43.3563 59.4161 46.4923 59.4161C49.6843 59.4161 52.2043 56.6161 52.2043 53.2001C52.2603 49.7841 49.6843 46.9841 46.4923 46.9841ZM66.9323 46.9841C63.7403 46.9841 61.2203 49.7841 61.2203 53.2001C61.2203 56.6161 63.7963 59.4161 66.9323 59.4161C70.1243 59.4161 72.6443 56.6161 72.6443 53.2001C72.6443 49.7841 70.1243 46.9841 66.9323 46.9841Z" fill="white"/>
<path d="M94.144 0H19.104C12.776 0 7.62402 5.152 7.62402 11.536V87.248C7.62402 93.632 12.776 98.784 19.104 98.784H82.608L79.64 88.424L86.808 95.088L93.584 101.36L105.624 112V11.536C105.624 5.152 100.472 0 94.144 0ZM72.528 73.136C72.528 73.136 70.512 70.728 68.832 68.6C76.168 66.528 78.968 61.936 78.968 61.936C76.672 63.448 74.488 64.512 72.528 65.24C69.728 66.416 67.04 67.2 64.408 67.648C59.032 68.656 54.104 68.376 49.904 67.592C46.712 66.976 43.968 66.08 41.672 65.184C40.384 64.68 38.984 64.064 37.584 63.28C37.416 63.168 37.248 63.112 37.08 63C36.968 62.944 36.912 62.888 36.856 62.832C35.848 62.272 35.288 61.88 35.288 61.88C35.288 61.88 37.976 66.36 45.088 68.488C43.408 70.616 41.336 73.136 41.336 73.136C28.96 72.744 24.256 64.624 24.256 64.624C24.256 46.592 32.32 31.976 32.32 31.976C40.384 25.928 48.056 26.096 48.056 26.096L48.616 26.768C38.536 29.68 33.888 34.104 33.888 34.104C33.888 34.104 35.12 33.432 37.192 32.48C43.184 29.848 47.944 29.12 49.904 28.952C50.24 28.896 50.52 28.84 50.856 28.84C54.272 28.392 58.136 28.28 62.168 28.728C67.488 29.344 73.2 30.912 79.024 34.104C79.024 34.104 74.6 29.904 65.08 26.992L65.864 26.096C65.864 26.096 73.536 25.928 81.6 31.976C81.6 31.976 89.664 46.592 89.664 64.624C89.664 64.624 84.904 72.744 72.528 73.136V73.136Z" fill="white"/>
</svg>
