<svg width="29" height="32" viewBox="0 0 29 32" fill="none" xmlns="http://www.w3.org/2000/svg">
<path d="M17.8714 30.2663C23.0514 30.2663 27.2506 26.0444 27.2506 20.8364V7.51542C27.2506 5.98816 26.0262 4.75008 24.492 4.75008C22.9685 4.75008 21.7335 5.98564 21.7335 7.51542V10.8476C21.2738 10.5019 20.7016 10.2971 20.0783 10.2971C19.3783 10.2971 18.7391 10.5612 18.2527 10.9942C17.8653 9.93934 16.8587 9.18769 15.6646 9.18769C15.0436 9.18769 14.4705 9.39555 14.0094 9.74476V4.20471C14.0094 2.66779 12.785 1.42188 11.2508 1.42188C9.72732 1.42188 8.49226 2.65932 8.49226 4.20471V12.9228C6.33487 10.8941 3.87193 9.38105 2.30323 10.9582C0.110424 13.1629 4.71558 17.4888 8.31662 24.085C10.8115 28.6549 14.4365 30.2663 17.8714 30.2663Z" stroke="white" stroke-width="2.62222"/>
</svg>
