<svg width="40" height="40" viewBox="0 0 40 40" fill="none" xmlns="http://www.w3.org/2000/svg">
<path d="M6.36562 23.812C5.89235 23.8663 5.45629 24.095 5.14241 24.4533C4.82853 24.8116 4.65933 25.274 4.66778 25.7503V37.2532C4.66957 37.7592 4.87139 38.244 5.22921 38.6018C5.58702 38.9596 6.07182 39.1614 6.57785 39.1632H33.4178C33.9238 39.1614 34.4086 38.9596 34.7664 38.6018C35.1242 38.244 35.3261 37.7592 35.3278 37.2532V25.7503C35.3279 25.4985 35.2784 25.2492 35.1821 25.0165C35.0858 24.7839 34.9445 24.5724 34.7665 24.3944C34.5885 24.2163 34.3771 24.075 34.1445 23.9786C33.9119 23.8823 33.6625 23.8327 33.4107 23.8327C33.1589 23.8327 32.9096 23.8823 32.6769 23.9786C32.4443 24.075 32.2329 24.2163 32.0549 24.3944C31.8769 24.5724 31.7357 24.7839 31.6394 25.0165C31.543 25.2492 31.4935 25.4985 31.4936 25.7503V35.3289H8.50206V25.7503C8.50693 25.4772 8.45336 25.2062 8.34496 24.9555C8.23656 24.7048 8.07582 24.4801 7.87352 24.2965C7.67121 24.113 7.43202 23.9748 7.17196 23.8912C6.91189 23.8077 6.63697 23.7806 6.36562 23.812Z" fill="white"/>
<path d="M19.9778 0.834513C19.4776 0.842391 19.0004 1.04549 18.6479 1.40046L1.40069 18.6476C1.1995 18.8193 1.03601 19.0307 0.920499 19.2687C0.804992 19.5066 0.739971 19.7658 0.729524 20.0301C0.719076 20.2944 0.763429 20.5579 0.859794 20.8042C0.956158 21.0505 1.10245 21.2742 1.28946 21.4612C1.47648 21.6483 1.70017 21.7945 1.94646 21.8909C2.19276 21.9873 2.45633 22.0316 2.7206 22.0212C2.98487 22.0107 3.24412 21.9457 3.48204 21.8302C3.71997 21.7147 3.93141 21.5512 4.10308 21.35L20.0061 5.46111L35.895 21.35C36.0703 21.5378 36.2815 21.6884 36.5161 21.793C36.7508 21.8976 37.004 21.9539 37.2608 21.9587C37.5177 21.9634 37.7728 21.9165 38.0112 21.8207C38.2495 21.725 38.4662 21.5822 38.6483 21.4011C38.8304 21.2199 38.9742 21.004 39.0712 20.7662C39.1683 20.5283 39.2165 20.2734 39.2131 20.0166C39.2096 19.7597 39.1546 19.5062 39.0513 19.271C38.948 19.0359 38.7984 18.8239 38.6116 18.6476L21.3503 1.40046C21.1706 1.21961 20.9567 1.07641 20.7211 0.979232C20.4854 0.882056 20.2327 0.832856 19.9778 0.834513Z" fill="white"/>
</svg>
