<svg width="46" height="46" viewBox="0 0 46 46" fill="none" xmlns="http://www.w3.org/2000/svg">
<g opacity="0.8">
<path d="M31.9184 3.7551C34.6571 3.7551 37.2837 4.84307 39.2203 6.77967C41.1569 8.71627 42.2449 11.3429 42.2449 14.0816V31.9184C42.2449 34.6571 41.1569 37.2837 39.2203 39.2203C37.2837 41.1569 34.6571 42.2449 31.9184 42.2449H14.0816C11.3429 42.2449 8.71627 41.1569 6.77967 39.2203C4.84307 37.2837 3.7551 34.6571 3.7551 31.9184V14.0816C3.7551 11.3429 4.84307 8.71627 6.77967 6.77967C8.71627 4.84307 11.3429 3.7551 14.0816 3.7551H31.9184ZM31.9184 0H14.0816C10.3504 0.0111437 6.77513 1.49832 4.13672 4.13672C1.49832 6.77513 0.0111437 10.3504 0 14.0816V31.9184C0.0111437 35.6496 1.49832 39.2249 4.13672 41.8633C6.77513 44.5017 10.3504 45.9889 14.0816 46H31.9184C35.6496 45.9889 39.2249 44.5017 41.8633 41.8633C44.5017 39.2249 45.9889 35.6496 46 31.9184V14.0816C45.9889 10.3504 44.5017 6.77513 41.8633 4.13672C39.2249 1.49832 35.6496 0.0111437 31.9184 0Z" fill="white"/>
<path d="M35.5936 7.66602C35.052 7.66602 34.5226 7.8266 34.0724 8.12747C33.6221 8.42833 33.2711 8.85597 33.0639 9.35629C32.8567 9.85661 32.8024 10.4071 32.9081 10.9383C33.0137 11.4694 33.2745 11.9573 33.6574 12.3402C34.0404 12.7232 34.5282 12.9839 35.0594 13.0896C35.5905 13.1952 36.1411 13.141 36.6414 12.9338C37.1417 12.7265 37.5693 12.3756 37.8702 11.9253C38.1711 11.475 38.3316 10.9457 38.3316 10.4041C38.3316 10.0445 38.2608 9.68849 38.1232 9.35629C37.9856 9.02409 37.7839 8.72224 37.5297 8.46799C37.2754 8.21373 36.9736 8.01204 36.6414 7.87444C36.3092 7.73684 35.9531 7.66602 35.5936 7.66602Z" fill="white"/>
<path d="M22.9812 14.7053C24.6221 14.7044 26.2264 15.1902 27.5911 16.1012C28.9559 17.0123 30.0197 18.3077 30.6481 19.8235C31.2764 21.3393 31.4411 23.0074 31.1212 24.6168C30.8013 26.2262 30.0112 27.7046 28.851 28.8649C27.6907 30.0251 26.2123 30.8152 24.6029 31.1351C22.9935 31.455 21.3254 31.2903 19.8096 30.662C18.2938 30.0336 16.9984 28.9698 16.0873 27.605C15.1763 26.2403 14.6905 24.636 14.6914 22.9951C14.6951 20.7977 15.5697 18.6913 17.1235 17.1375C18.6774 15.5836 20.7838 14.709 22.9812 14.7053ZM22.9812 10.9522C20.5992 10.9568 18.272 11.6674 16.2938 12.9943C14.3156 14.3211 12.7751 16.2046 11.8669 18.4067C10.9588 20.6088 10.7239 23.0306 11.1917 25.3662C11.6596 27.7018 12.8094 29.8463 14.4957 31.5287C16.1819 33.211 18.3291 34.3557 20.6658 34.8182C23.0024 35.2806 25.4238 35.04 27.6237 34.1267C29.8237 33.2135 31.7036 31.6686 33.0258 29.6872C34.348 27.7059 35.0532 25.3771 35.0523 22.9951C35.0517 21.4114 34.7388 19.8434 34.1316 18.3807C33.5244 16.918 32.6348 15.5894 31.5137 14.4709C30.3925 13.3523 29.0618 12.4658 27.5977 11.8621C26.1337 11.2583 24.5649 10.9491 22.9812 10.9522Z" fill="white"/>
</g>
</svg>
