<svg width="32" height="44" viewBox="0 0 32 44" fill="none" xmlns="http://www.w3.org/2000/svg">
<path d="M16.0046 0.910156C7.55893 0.910157 0.667479 7.8016 0.66748 16.2473C0.66748 21.9334 4.26729 28.219 7.69935 33.3671C11.1314 38.5152 14.5614 42.4222 14.5614 42.4222C14.7338 42.6185 14.9444 42.7774 15.1804 42.8893C15.4163 43.0013 15.6727 43.0638 15.9337 43.073C16.1947 43.0823 16.4549 43.0382 16.6982 42.9433C16.9415 42.8484 17.1629 42.7048 17.3487 42.5213C17.3487 42.5213 20.8241 39.0562 24.2815 34.117C27.739 29.1778 31.3275 22.7426 31.3275 16.2473C31.3275 7.8016 24.4502 0.910157 16.0046 0.910156ZM16.0046 4.74443C22.3786 4.74443 27.4933 9.87329 27.4933 16.2473C27.4933 21.2519 24.3914 27.2798 21.1405 31.9239C18.6002 35.553 17.048 37.0389 16.0612 38.0786C15.0847 36.9207 13.468 35.1226 10.8828 31.2448C7.60651 26.3304 4.50176 20.1445 4.50176 16.2473C4.50176 9.87329 9.63061 4.74443 16.0046 4.74443Z" fill="white"/>
<path d="M16.0074 8.57861C11.7959 8.57861 8.33887 12.0357 8.33887 16.2472C8.33887 20.4586 11.7959 23.9157 16.0074 23.9157C20.2189 23.9157 23.6618 20.4586 23.6618 16.2472C23.6618 12.0357 20.2189 8.57861 16.0074 8.57861ZM16.0074 12.4129C18.1472 12.4129 19.8417 14.1074 19.8417 16.2472C19.8417 18.387 18.1472 20.0814 16.0074 20.0814C13.8676 20.0814 12.1731 18.387 12.1731 16.2472C12.1731 14.1074 13.8676 12.4129 16.0074 12.4129Z" fill="white"/>
</svg>
