<svg width="28" height="34" viewBox="0 0 28 34" fill="none" xmlns="http://www.w3.org/2000/svg">
<path d="M25.4391 0.744232C25.1305 0.757196 24.8295 0.844568 24.5619 0.998907L9.22479 9.61542C8.92867 9.78218 8.68222 10.0247 8.51067 10.318C8.33912 10.6114 8.24865 10.9451 8.24854 11.285V28.5463C8.24847 28.7981 8.298 29.0474 8.39432 29.2801C8.49063 29.5128 8.63184 29.7242 8.80987 29.9022C8.98789 30.0803 9.19926 30.2216 9.4319 30.318C9.66453 30.4143 9.91387 30.4639 10.1657 30.4639C10.4175 30.4639 10.6668 30.4143 10.8995 30.318C11.1321 30.2216 11.3435 30.0803 11.5215 29.9022C11.6995 29.7242 11.8407 29.5128 11.937 29.2801C12.0333 29.0474 12.0829 28.7981 12.0828 28.5463V12.4168L23.5856 5.95093V23.7499C23.5856 24.2583 23.7876 24.746 24.1472 25.1055C24.5067 25.465 24.9943 25.667 25.5028 25.667C26.0112 25.667 26.4989 25.465 26.8584 25.1055C27.2179 24.746 27.4199 24.2583 27.4199 23.7499V2.66844C27.4211 2.41063 27.3702 2.15523 27.2703 1.91754C27.1704 1.67985 27.0236 1.46474 26.8387 1.2851C26.6538 1.10545 26.4345 0.964962 26.194 0.872028C25.9535 0.779094 25.6968 0.735628 25.4391 0.744232Z" fill="white"/>
<path d="M6.33564 23.75C4.88865 23.75 3.54113 24.1799 2.47306 24.9809C1.405 25.782 0.577148 27.0619 0.577148 28.5464C0.577148 30.0309 1.405 31.3108 2.47306 32.1118C3.54113 32.9129 4.88865 33.3286 6.33564 33.3286C7.78262 33.3286 9.13015 32.9129 10.1982 32.1118C11.2663 31.3108 12.08 30.0309 12.08 28.5464C12.08 27.0619 11.2663 25.782 10.1982 24.9809C9.13015 24.1799 7.78262 23.75 6.33564 23.75ZM6.33564 27.5843C7.00575 27.5843 7.57266 27.7975 7.89199 28.037C8.21132 28.2765 8.2457 28.443 8.2457 28.5464C8.2457 28.6497 8.21129 28.8021 7.89199 29.0416C7.57266 29.2811 7.00574 29.4943 6.33564 29.4943C5.66553 29.4943 5.08447 29.2811 4.76514 29.0416C4.44581 28.8021 4.41143 28.6497 4.41143 28.5464C4.41143 28.443 4.44584 28.2765 4.76514 28.037C5.08447 27.7975 5.66553 27.5843 6.33564 27.5843Z" fill="white"/>
<path d="M21.6604 18.9536C20.2134 18.9536 18.88 19.3835 17.8119 20.1845C16.7439 20.9856 15.916 22.2655 15.916 23.75C15.916 25.2345 16.7439 26.5144 17.8119 27.3154C18.88 28.1165 20.2134 28.5464 21.6604 28.5464C23.1073 28.5464 24.4549 28.1165 25.5229 27.3154C26.591 26.5144 27.4188 25.2345 27.4188 23.75C27.4188 22.2655 26.591 20.9856 25.5229 20.1845C24.4549 19.3835 23.1073 18.9536 21.6604 18.9536ZM21.6604 22.7879C22.3305 22.7879 22.9115 23.0153 23.2309 23.2548C23.5502 23.4943 23.5846 23.6466 23.5846 23.75C23.5846 23.8533 23.5502 24.0057 23.2309 24.2452C22.9115 24.4847 22.3305 24.7121 21.6604 24.7121C20.9902 24.7121 20.4233 24.4847 20.104 24.2452C19.7847 24.0057 19.7503 23.8533 19.7503 23.75C19.7503 23.6467 19.7847 23.4943 20.104 23.2548C20.4233 23.0153 20.9903 22.7879 21.6604 22.7879Z" fill="white"/>
</svg>
