<svg width="22" height="22" viewBox="0 0 22 22" fill="none" xmlns="http://www.w3.org/2000/svg">
<path d="M19.2335 15.1193L18.7672 15.181C18.554 15.2095 18.3488 15.281 18.1641 15.3912C17.9793 15.5014 17.8189 15.6481 17.6926 15.8222C17.5663 15.9963 17.4767 16.1942 17.4292 16.404C17.3817 16.6138 17.3774 16.8311 17.4164 17.0426L17.5193 17.4952C17.5741 17.7892 17.5445 18.0927 17.434 18.3706C17.3235 18.6486 17.1365 18.8895 16.8948 19.0656C16.6531 19.2417 16.3664 19.3458 16.068 19.3658C15.7696 19.3857 15.4716 19.3208 15.2085 19.1785L14.7149 18.9111C14.5326 18.8114 14.3324 18.7487 14.1258 18.7264C13.9192 18.7042 13.7103 18.7229 13.511 18.7815C13.3116 18.8401 13.1258 18.9374 12.9641 19.0679C12.8024 19.1984 12.6681 19.3595 12.5687 19.5419L12.0339 20.4642C11.8978 20.7131 11.6972 20.9208 11.4532 21.0655C11.2092 21.2102 10.9308 21.2865 10.6471 21.2865C10.3634 21.2865 10.0849 21.2102 9.84094 21.0655C9.59693 20.9208 9.39637 20.7131 9.26029 20.4642L8.77003 19.5419C8.67066 19.3595 8.53629 19.1984 8.3746 19.0679C8.21291 18.9374 8.02708 18.8401 7.82775 18.7815C7.62841 18.7229 7.41948 18.7042 7.21291 18.7264C7.00633 18.7487 6.80617 18.8114 6.62387 18.9111L6.13018 19.1785C5.86677 19.3248 5.56711 19.3929 5.26636 19.3748C4.96561 19.3568 4.67625 19.2533 4.43223 19.0766C4.1882 18.8999 3.99965 18.6572 3.88868 18.3771C3.77771 18.097 3.74894 17.7911 3.80573 17.4952L3.89144 17.0323C3.93051 16.8208 3.92617 16.6036 3.87869 16.3937C3.83121 16.1839 3.74159 15.986 3.61526 15.8119C3.48893 15.6378 3.32853 15.4912 3.1438 15.3809C2.95908 15.2707 2.75387 15.1992 2.54066 15.1707L2.09154 15.1193C1.79068 15.0827 1.50657 14.9608 1.27279 14.7679C1.03902 14.575 0.86536 14.3192 0.772334 14.0308C0.679308 13.7423 0.670808 13.4333 0.747837 13.1401C0.824866 12.847 0.984204 12.5821 1.20702 12.3766L1.54986 12.0543C1.70586 11.9058 1.83006 11.727 1.91492 11.529C1.99979 11.331 2.04355 11.1178 2.04355 10.9024C2.04355 10.687 1.99979 10.4738 1.91492 10.2758C1.83006 10.0777 1.70586 9.89903 1.54986 9.75046L1.20702 9.42819C0.98429 9.22296 0.824924 8.95829 0.747733 8.66542C0.670542 8.37255 0.678747 8.06371 0.771381 7.77536C0.864015 7.48701 1.03721 7.23117 1.27052 7.03806C1.50384 6.84494 1.78753 6.7226 2.08811 6.68548L2.55437 6.6272C2.76759 6.59872 2.97279 6.5272 3.15752 6.41698C3.34224 6.30677 3.50264 6.16016 3.62897 5.98605C3.7553 5.81195 3.84492 5.61399 3.8924 5.40418C3.93988 5.19438 3.94422 4.97712 3.90516 4.76559L3.80573 4.32332C3.74894 4.02744 3.77771 3.72148 3.88868 3.44137C3.99965 3.16126 4.1882 2.91861 4.43223 2.74189C4.67625 2.56517 4.96561 2.46172 5.26636 2.44367C5.56711 2.42562 5.86677 2.49372 6.13018 2.63999L6.67529 2.93826C7.03474 3.13386 7.45604 3.18242 7.85056 3.07372C8.24508 2.96502 8.58206 2.70753 8.7906 2.35543L9.29115 1.49491C9.43107 1.259 9.62998 1.06357 9.86832 0.927826C10.1067 0.792083 10.3762 0.720703 10.6505 0.720703C10.9248 0.720703 11.1943 0.792083 11.4327 0.927826C11.671 1.06357 11.8699 1.259 12.0099 1.49491L12.5207 2.35543C12.7292 2.70753 13.0662 2.96502 13.4607 3.07372C13.8552 3.18242 14.2766 3.13386 14.636 2.93826L15.1811 2.63999C15.4448 2.48968 15.7462 2.41831 16.0493 2.43438C16.3524 2.45045 16.6445 2.55328 16.8909 2.73064C17.1372 2.90799 17.3274 3.15239 17.4388 3.43476C17.5502 3.71712 17.5782 4.02555 17.5193 4.32332L17.4336 4.78959C17.3945 5.00112 17.3988 5.21838 17.4463 5.42818C17.4938 5.63799 17.5834 5.83595 17.7097 6.01005C17.8361 6.18416 17.9965 6.33077 18.1812 6.44098C18.3659 6.5512 18.5711 6.62272 18.7843 6.6512L19.2506 6.70948C19.5512 6.7466 19.8349 6.86894 20.0682 7.06205C20.3015 7.25517 20.4747 7.511 20.5673 7.79936C20.66 8.08771 20.6682 8.39655 20.591 8.68942C20.5138 8.98228 20.3544 9.24695 20.1317 9.45219L19.7889 9.77446C19.6329 9.92303 19.5087 10.1017 19.4238 10.2998C19.3389 10.4978 19.2952 10.711 19.2952 10.9264C19.2952 11.1418 19.3389 11.355 19.4238 11.553C19.5087 11.751 19.6329 11.9298 19.7889 12.0783L20.1317 12.4006C20.3475 12.6081 20.5002 12.8724 20.5723 13.163C20.6443 13.4535 20.6327 13.7586 20.5388 14.0428C20.4448 14.3271 20.2725 14.579 20.0415 14.7695C19.8105 14.9599 19.5304 15.0812 19.2335 15.1193Z" fill="white" fill-opacity="0.46"/>
<path d="M20.2641 11.564C20.1747 11.48 20.1034 11.3786 20.0546 11.2659C20.0059 11.1533 19.9808 11.0319 19.9808 10.9092C19.9808 10.7865 20.0059 10.665 20.0546 10.5524C20.1034 10.4398 20.1747 10.3384 20.2641 10.2544L20.607 9.93209C20.9181 9.63672 21.1392 9.25935 21.2449 8.8436C21.3505 8.42785 21.3364 7.99068 21.2041 7.58262C21.0718 7.17457 20.8267 6.81228 20.4972 6.53764C20.1676 6.263 19.7671 6.08721 19.3419 6.03059L18.8757 5.96888C18.7545 5.95328 18.6379 5.91305 18.5329 5.85067C18.4279 5.78829 18.3368 5.70508 18.2651 5.60616C18.1935 5.50724 18.1429 5.3947 18.1164 5.27548C18.0899 5.15626 18.0881 5.03288 18.1111 4.91293L18.1968 4.44667C18.2731 4.02572 18.2289 3.59177 18.0693 3.19486C17.9096 2.79796 17.641 2.45426 17.2945 2.20339C16.9479 1.95253 16.5375 1.80473 16.1106 1.77702C15.6837 1.74932 15.2576 1.84284 14.8816 2.04681L14.3365 2.34507C14.1317 2.45528 13.892 2.48112 13.6685 2.41707C13.4449 2.35302 13.2553 2.20415 13.14 2.00224L12.612 1.14514C12.4114 0.806915 12.1262 0.526723 11.7844 0.332108C11.4427 0.137494 11.0562 0.0351562 10.663 0.0351562C10.2697 0.0351563 9.88321 0.137494 9.54148 0.332108C9.19975 0.526723 8.91455 0.806915 8.71392 1.14514L8.20309 2.00566C8.08777 2.20758 7.89811 2.35644 7.67458 2.42049C7.45105 2.48454 7.21134 2.45871 7.00658 2.3485L6.46147 2.05023C6.08541 1.84627 5.65935 1.75275 5.23244 1.78045C4.80552 1.80816 4.39513 1.95596 4.04858 2.20682C3.70203 2.45768 3.43345 2.80138 3.27379 3.19829C3.11414 3.5952 3.06991 4.02915 3.14622 4.4501L3.23193 4.91636C3.25492 5.03631 3.25312 5.15969 3.22663 5.27891C3.20014 5.39813 3.14953 5.51066 3.07791 5.60959C3.00628 5.70851 2.91517 5.79172 2.81018 5.8541C2.70518 5.91648 2.58853 5.95671 2.4674 5.97231L2.00114 6.03402C1.57551 6.08898 1.17414 6.26333 0.843448 6.53688C0.51276 6.81043 0.266272 7.17201 0.132495 7.57979C-0.00128078 7.98757 -0.0168783 8.4249 0.0875069 8.84118C0.191892 9.25745 0.411995 9.63568 0.722354 9.93209L1.06519 10.2544C1.15377 10.3389 1.22428 10.4405 1.27245 10.553C1.32063 10.6656 1.34546 10.7867 1.34546 10.9092C1.34546 11.0316 1.32063 11.1528 1.27245 11.2653C1.22428 11.3779 1.15377 11.4795 1.06519 11.564L0.722354 11.8863C0.405714 12.1817 0.180061 12.5615 0.0719575 12.9808C-0.0361462 13.4002 -0.0222017 13.8417 0.11215 14.2534C0.246501 14.6651 0.495667 15.0298 0.83032 15.3047C1.16497 15.5796 1.57118 15.7531 2.00114 15.8049L2.4674 15.8666C2.58832 15.8827 2.7047 15.9232 2.80945 15.9857C2.91419 16.0483 3.0051 16.1315 3.07664 16.2303C3.14817 16.3291 3.19884 16.4414 3.22554 16.5604C3.25224 16.6795 3.25441 16.8027 3.23193 16.9226L3.14622 17.3888C3.06991 17.8098 3.11414 18.2437 3.27379 18.6406C3.43345 19.0375 3.70203 19.3812 4.04858 19.6321C4.39513 19.883 4.80552 20.0308 5.23244 20.0585C5.65935 20.0862 6.08541 19.9927 6.46147 19.7887L6.95516 19.5179C7.16174 19.4032 7.40528 19.3749 7.63264 19.4391C7.86001 19.5034 8.05275 19.6549 8.16881 19.8607L8.67278 20.7829C8.86761 21.1407 9.15528 21.4393 9.50551 21.6474C9.85574 21.8554 10.2556 21.9653 10.663 21.9653C11.0703 21.9653 11.4702 21.8554 11.8204 21.6474C12.1706 21.4393 12.4583 21.1407 12.6531 20.7829L13.1571 19.8607C13.2732 19.6549 13.4659 19.5034 13.6933 19.4391C13.9206 19.3749 14.1642 19.4032 14.3708 19.5179L14.8644 19.7887C15.2405 19.9927 15.6666 20.0862 16.0935 20.0585C16.5204 20.0308 16.9308 19.883 17.2773 19.6321C17.6239 19.3812 17.8925 19.0375 18.0521 18.6406C18.2118 18.2437 18.256 17.8098 18.1797 17.3888L18.094 16.9226C18.071 16.8026 18.0728 16.6792 18.0993 16.56C18.1258 16.4408 18.1764 16.3283 18.248 16.2293C18.3196 16.1304 18.4107 16.0472 18.5157 15.9848C18.6207 15.9224 18.7374 15.8822 18.8585 15.8666L19.3248 15.8049C19.755 15.7537 20.1616 15.5805 20.4967 15.3059C20.8319 15.0312 21.0815 14.6665 21.2162 14.2547C21.351 13.8429 21.3652 13.4012 21.2573 12.9816C21.1493 12.562 20.9237 12.1819 20.607 11.8863L20.2641 11.564ZM19.8802 13.8164C19.6779 14.437 19.1362 14.4301 18.6802 14.5021C18.3745 14.5426 18.0802 14.6448 17.8153 14.8025C17.5503 14.9603 17.3202 15.1703 17.139 15.4199C16.9578 15.6694 16.8293 15.9532 16.7612 16.2539C16.6932 16.5547 16.687 16.8662 16.7432 17.1694C16.8392 17.6768 16.99 18.1534 16.4724 18.5408C15.9547 18.9282 15.5055 18.5922 15.0256 18.3316C14.7637 18.1879 14.476 18.0973 14.179 18.065C13.882 18.0327 13.5815 18.0594 13.2949 18.1435C13.0082 18.2276 12.741 18.3674 12.5085 18.555C12.276 18.7426 12.0828 18.9743 11.94 19.2367L11.4361 20.159C11.3593 20.3007 11.2456 20.4191 11.1071 20.5016C10.9687 20.5841 10.8104 20.6276 10.6492 20.6276C10.488 20.6276 10.3298 20.5841 10.1913 20.5016C10.0528 20.4191 9.9392 20.3007 9.86243 20.159L9.35845 19.2367C9.16309 18.8793 8.87499 18.5811 8.52445 18.3735C8.17392 18.166 7.77393 18.0568 7.36656 18.0574C6.70146 18.0574 6.33805 18.3042 5.78951 18.6025C5.63861 18.6816 5.46833 18.7161 5.29854 18.702C5.12876 18.688 4.96647 18.626 4.83061 18.5232C4.69475 18.4204 4.59092 18.2811 4.53125 18.1215C4.47157 17.9619 4.45851 17.7887 4.49358 17.622C4.60671 17.0083 4.80213 16.2506 4.18502 15.4038C3.56791 14.557 2.84795 14.5158 2.17942 14.4336C2.01118 14.4099 1.85298 14.3394 1.72292 14.2301C1.59287 14.1208 1.4962 13.9771 1.44398 13.8155C1.39176 13.6538 1.3861 13.4807 1.42764 13.316C1.46918 13.1512 1.55624 13.0015 1.67887 12.8839C2.20684 12.3765 2.72796 11.924 2.72796 10.9092C2.72796 9.89438 2.16913 9.40069 1.67887 8.94814C1.55594 8.831 1.46858 8.68151 1.42686 8.5169C1.38514 8.35229 1.39076 8.17924 1.44306 8.01768C1.49536 7.85612 1.59222 7.71262 1.72249 7.60368C1.85276 7.49475 2.01115 7.42482 2.17942 7.40194C2.90624 7.30595 3.59534 7.23395 4.18502 6.42485C4.7747 5.61575 4.61357 4.85122 4.49358 4.20669C4.46151 4.03985 4.47761 3.86734 4.53998 3.70931C4.60235 3.55128 4.70842 3.41428 4.84578 3.31431C4.98314 3.21435 5.14613 3.15555 5.31567 3.1448C5.48522 3.13405 5.65433 3.17178 5.80322 3.2536L6.34833 3.54844C6.86397 3.83063 7.46928 3.90076 8.03578 3.74394C8.60228 3.58711 9.08535 3.21568 9.38245 2.70848C9.84186 1.93024 10.0201 1.4057 10.6647 1.4057C10.8208 1.40297 10.9748 1.44227 11.1105 1.51947C11.2462 1.59668 11.3586 1.70895 11.4361 1.84453L11.9435 2.70848C12.2429 3.21326 12.7267 3.58195 13.2928 3.73675C13.8589 3.89155 14.463 3.82034 14.9776 3.53815L15.5227 3.24331C15.6717 3.1605 15.8412 3.12196 16.0113 3.13222C16.1815 3.14249 16.3451 3.20113 16.4831 3.30125C16.621 3.40137 16.7275 3.53881 16.79 3.69739C16.8524 3.85597 16.8683 4.0291 16.8358 4.1964C16.7295 4.78266 16.5238 5.56776 17.1477 6.41457C17.7717 7.26138 18.4848 7.30252 19.1533 7.39166C19.3237 7.41328 19.4843 7.4833 19.6161 7.5934C19.7479 7.70351 19.8454 7.84909 19.897 8.01289C19.9486 8.17669 19.9521 8.35185 19.9072 8.51761C19.8623 8.68337 19.7708 8.83278 19.6436 8.94814C19.1122 9.45554 18.6151 9.91152 18.6151 10.9195C18.5979 12.7194 20.2641 12.6919 19.8802 13.8164Z" fill="white"/>
<path d="M7.25885 10.5939C7.21598 10.512 7.15699 10.4396 7.08541 10.381C7.01383 10.3225 6.93114 10.279 6.84233 10.2532C6.75351 10.2275 6.6604 10.2199 6.5686 10.2311C6.4768 10.2422 6.3882 10.2718 6.30814 10.3181C6.22808 10.3644 6.1582 10.4264 6.10272 10.5004C6.04724 10.5744 6.00729 10.6588 5.98529 10.7486C5.96329 10.8384 5.95969 10.9318 5.9747 11.023C5.98971 11.1143 6.02302 11.2016 6.07263 11.2796L6.99829 12.8841L4.595 11.691C4.46316 11.6258 4.31387 11.6048 4.16916 11.6309C4.02445 11.6571 3.89198 11.7291 3.79131 11.8363C3.69064 11.9435 3.62711 12.0802 3.61008 12.2263C3.59305 12.3724 3.62344 12.52 3.69676 12.6475L5.75379 16.213C5.79665 16.295 5.85565 16.3674 5.92723 16.426C5.99881 16.4845 6.0815 16.528 6.17031 16.5537C6.25913 16.5795 6.35224 16.587 6.44404 16.5759C6.53584 16.5647 6.62444 16.5351 6.7045 16.4889C6.78456 16.4426 6.85444 16.3806 6.90992 16.3066C6.9654 16.2326 7.00534 16.1482 7.02735 16.0583C7.04935 15.9685 7.05295 15.8752 7.03794 15.7839C7.02293 15.6927 6.98962 15.6054 6.94001 15.5274L6.01777 13.9229L8.41764 15.1125C8.54948 15.1777 8.69877 15.1988 8.84348 15.1726C8.98819 15.1464 9.12066 15.0744 9.22133 14.9672C9.322 14.86 9.38553 14.7233 9.40256 14.5772C9.41958 14.4312 9.3892 14.2835 9.31588 14.156L7.25885 10.5939Z" fill="white"/>
<path d="M12.5358 11.5054L10.7564 12.5339L10.4136 11.9408L11.5998 11.2551C11.7491 11.1602 11.8559 11.0114 11.898 10.8396C11.94 10.6678 11.9141 10.4864 11.8256 10.3333C11.7371 10.1802 11.5929 10.0672 11.423 10.0179C11.2532 9.96866 11.0709 9.98691 10.9141 10.0689L9.72793 10.7546L9.38509 10.1615L11.1644 9.13294C11.2425 9.08792 11.311 9.02795 11.366 8.95646C11.4209 8.88498 11.4612 8.80337 11.4846 8.7163C11.508 8.62923 11.514 8.5384 11.5023 8.449C11.4906 8.35961 11.4614 8.27339 11.4164 8.19528C11.3714 8.11716 11.3114 8.04868 11.2399 7.99374C11.1684 7.93881 11.0868 7.89849 10.9998 7.87509C10.9127 7.85169 10.8219 7.84567 10.7325 7.85737C10.6431 7.86907 10.5569 7.89827 10.4787 7.94329L8.1063 9.31464C8.02819 9.35944 7.95966 9.41918 7.90463 9.49046C7.84961 9.56174 7.80916 9.64316 7.7856 9.73007C7.76204 9.81699 7.75583 9.90769 7.76733 9.997C7.77883 10.0863 7.8078 10.1725 7.8526 10.2506C10.0399 14.0218 9.95077 14.0218 10.3279 14.135C10.705 14.2481 10.6707 14.1727 13.2215 12.695C13.3792 12.6041 13.4944 12.4542 13.5416 12.2784C13.5889 12.1025 13.5644 11.9151 13.4734 11.7574C13.3825 11.5996 13.2326 11.4844 13.0568 11.4372C12.8809 11.3899 12.6935 11.4145 12.5358 11.5054Z" fill="white"/>
<path d="M15.5715 5.79412C15.5286 5.71218 15.4696 5.63975 15.398 5.5812C15.3264 5.52265 15.2437 5.47919 15.1549 5.45342C15.0661 5.42766 14.973 5.42012 14.8812 5.43127C14.7894 5.44242 14.7008 5.47203 14.6207 5.51831C14.5407 5.56459 14.4708 5.62658 14.4153 5.70057C14.3598 5.77455 14.3199 5.85899 14.2979 5.94882C14.2759 6.03864 14.2723 6.13198 14.2873 6.22323C14.3023 6.31448 14.3356 6.40175 14.3852 6.47979L15.7566 8.85567L15.4138 8.81452C15.2669 8.79744 15.1185 8.82826 14.9906 8.9024C14.8627 8.97654 14.7622 9.09002 14.7041 9.22593L14.5669 9.54134L13.1956 7.16547C13.1527 7.08353 13.0937 7.01111 13.0221 6.95256C12.9506 6.89401 12.8679 6.85054 12.7791 6.82477C12.6902 6.79901 12.5971 6.79148 12.5053 6.80263C12.4135 6.81378 12.3249 6.84338 12.2449 6.88966C12.1648 6.93594 12.0949 6.99794 12.0395 7.07192C11.984 7.14591 11.944 7.23035 11.922 7.32017C11.9 7.40999 11.8964 7.50333 11.9114 7.59458C11.9264 7.68583 11.9598 7.77311 12.0094 7.85115L14.0664 11.4167C14.1297 11.527 14.2224 11.6176 14.3342 11.6782C14.446 11.7389 14.5725 11.7672 14.6995 11.7601C14.8265 11.753 14.949 11.7107 15.0534 11.6379C15.1577 11.5652 15.2398 11.4648 15.2903 11.3481L15.76 10.2442L16.9531 10.3882C17.081 10.4062 17.2114 10.3877 17.3293 10.3349C17.4472 10.2821 17.5478 10.197 17.6194 10.0895C17.6911 9.98206 17.7309 9.85652 17.7343 9.72738C17.7378 9.59825 17.7046 9.47077 17.6388 9.35964L15.5715 5.79412Z" fill="white"/>
</svg>
