<svg width="40" height="36" viewBox="0 0 40 36" fill="none" xmlns="http://www.w3.org/2000/svg">
<path d="M20.0049 7.66309C16.3804 7.66309 13.3975 10.646 13.3975 14.2705C13.3975 17.895 16.3804 20.8779 20.0049 20.8779C23.6293 20.8779 26.5981 17.895 26.5981 14.2705C26.5981 10.646 23.6293 7.66309 20.0049 7.66309ZM20.0049 11.4974C21.5576 11.4974 22.7638 12.7177 22.7638 14.2705C22.7638 15.8233 21.5576 17.0436 20.0049 17.0436C18.4521 17.0436 17.2317 15.8233 17.2317 14.2705C17.2317 12.7177 18.4521 11.4974 20.0049 11.4974Z" fill="white"/>
<path d="M20.0074 23.3257C14.2036 23.3257 9.14524 27.3591 7.85378 33.0175C7.78624 33.2669 7.7698 33.5273 7.80545 33.7832C7.8411 34.039 7.92811 34.2851 8.06125 34.5065C8.19438 34.7279 8.3709 34.9201 8.58019 35.0715C8.78948 35.223 9.02723 35.3306 9.27915 35.3878C9.53107 35.4451 9.79197 35.4508 10.0462 35.4047C10.3004 35.3586 10.5426 35.2616 10.7584 35.1194C10.9741 34.9773 11.1589 34.7931 11.3017 34.5778C11.4444 34.3624 11.5421 34.1205 11.589 33.8664C12.4872 29.9309 15.9707 27.16 20.0074 27.16C24.0443 27.16 27.5136 29.9307 28.4117 33.8664C28.4586 34.1205 28.5563 34.3624 28.6991 34.5778C28.8418 34.7931 29.0266 34.9773 29.2424 35.1194C29.4581 35.2615 29.7004 35.3586 29.9546 35.4047C30.2088 35.4508 30.4697 35.4451 30.7216 35.3878C30.9735 35.3306 31.2113 35.223 31.4205 35.0715C31.6298 34.9201 31.8064 34.7279 31.9395 34.5065C32.0726 34.2851 32.1596 34.039 32.1953 33.7832C32.2309 33.5273 32.2145 33.2669 32.147 33.0175C30.8557 27.3588 25.8115 23.3257 20.0074 23.3257Z" fill="white"/>
<path d="M7.6416 0.744141C4.01713 0.744141 1.04834 3.72708 1.04834 7.35155C1.04834 10.976 4.01713 13.959 7.6416 13.959C11.2661 13.959 14.249 10.976 14.249 7.35155C14.249 3.72708 11.2661 0.74414 7.6416 0.744141ZM7.6416 4.57842C9.19438 4.57842 10.4147 5.79877 10.4147 7.35155C10.4147 8.90433 9.19438 10.1247 7.6416 10.1247C6.08882 10.1247 4.88262 8.90433 4.88262 7.35155C4.88262 5.79877 6.08882 4.57842 7.6416 4.57842Z" fill="white"/>
<path d="M7.64714 16.4092C5.62861 16.4092 3.63934 16.9007 1.85222 17.8392C1.62917 17.9561 1.43134 18.1159 1.27004 18.3093C1.10874 18.5027 0.987124 18.726 0.912142 18.9664C0.83716 19.2068 0.810281 19.4597 0.83304 19.7105C0.855799 19.9613 0.92775 20.2052 1.04478 20.4282C1.16182 20.6512 1.32164 20.849 1.51512 21.0102C1.7086 21.1714 1.93195 21.2929 2.1724 21.3678C2.41286 21.4427 2.66571 21.4694 2.91652 21.4466C3.16733 21.4237 3.41117 21.3517 3.63412 21.2345C4.87165 20.5847 6.24937 20.2425 7.64714 20.2425C8.71826 20.2425 9.77857 20.4416 10.7767 20.8302C11.0121 20.9266 11.2644 20.975 11.5188 20.9729C11.7732 20.9707 12.0246 20.9179 12.2583 20.8176C12.4921 20.7173 12.7036 20.5715 12.8804 20.3886C13.0573 20.2057 13.1959 19.9895 13.2883 19.7525C13.3808 19.5155 13.4251 19.2624 13.4187 19.0081C13.4123 18.7538 13.3554 18.5033 13.2513 18.2712C13.1471 18.0391 12.9978 17.8301 12.812 17.6563C12.6263 17.4825 12.4078 17.3474 12.1693 17.259C10.7278 16.6977 9.19403 16.4092 7.64714 16.4092Z" fill="white"/>
<path d="M32.5683 0.744141C28.9439 0.744141 25.9609 3.72708 25.9609 7.35155C25.9609 10.976 28.9439 13.959 32.5683 13.959C36.1928 13.959 39.1616 10.976 39.1616 7.35155C39.1616 3.72708 36.1928 0.74414 32.5683 0.744141ZM32.5683 4.57842C34.1211 4.57842 35.3273 5.79877 35.3273 7.35155C35.3273 8.90433 34.1211 10.1247 32.5683 10.1247C31.0156 10.1247 29.7952 8.90433 29.7952 7.35155C29.7952 5.79877 31.0156 4.57842 32.5683 4.57842Z" fill="white"/>
<path d="M32.5627 16.4092C31.0746 16.4092 29.5994 16.6749 28.2053 17.1953C27.9692 17.2832 27.7527 17.4168 27.5682 17.5883C27.3837 17.7599 27.2349 17.9662 27.1301 18.1953C27.0254 18.4244 26.9668 18.672 26.9578 18.9237C26.9487 19.1755 26.9894 19.4266 27.0774 19.6627C27.1655 19.8987 27.2991 20.1151 27.4708 20.2995C27.6425 20.4839 27.8489 20.6326 28.078 20.7372C28.3072 20.8418 28.5548 20.9002 28.8066 20.9091C29.0584 20.918 29.3094 20.8772 29.5454 20.7891C30.5108 20.4287 31.5323 20.2425 32.5627 20.2425C33.8945 20.2425 35.2069 20.5523 36.3998 21.1447C36.6252 21.2569 36.8705 21.3236 37.1217 21.341C37.3729 21.3583 37.625 21.326 37.8637 21.2459C38.1024 21.1658 38.323 21.0395 38.5129 20.8741C38.7028 20.7088 38.8582 20.5076 38.9703 20.2821C39.0824 20.0567 39.149 19.8114 39.1663 19.5602C39.1836 19.309 39.1512 19.0568 39.071 18.8181C38.9908 18.5795 38.8644 18.3589 38.6989 18.1691C38.5335 17.9793 38.3323 17.8239 38.1068 17.7119C36.3842 16.8564 34.4861 16.4092 32.5627 16.4092Z" fill="white"/>
</svg>
