<svg width="38" height="38" viewBox="0 0 38 38" fill="none" xmlns="http://www.w3.org/2000/svg">
<path d="M23.5902 0.0181854C23.1048 0.0368877 22.6447 0.239164 22.3027 0.58413L0.584561 22.3023C0.227661 22.6614 0.0273438 23.1471 0.0273438 23.6535C0.0273437 24.1598 0.227661 24.6455 0.584561 25.0047L12.9929 37.4271C13.352 37.784 13.8378 37.9844 14.3441 37.9844C14.8504 37.9844 15.3362 37.784 15.6953 37.4271L37.4276 15.6949C37.6183 15.5025 37.7661 15.2719 37.8612 15.0183C37.9563 14.7646 37.9966 14.4937 37.9794 14.2234L37.2012 2.57909C37.1698 2.11661 36.9719 1.68117 36.6442 1.3534C36.3164 1.02563 35.8809 0.827732 35.4185 0.79636L23.7883 0.0181854C23.7223 0.0147715 23.6562 0.0147715 23.5902 0.0181854H23.5902ZM24.3967 3.90906L33.4943 4.5033L34.1026 13.6009L14.337 33.3523L4.64522 23.6605L24.3967 3.90906Z" fill="white"/>
<path d="M28.3873 7.50305C27.8791 7.52962 27.4022 7.75692 27.0615 8.13498C26.7208 8.51304 26.5442 9.01092 26.5704 9.51917C26.5967 10.0274 26.8237 10.5044 27.2015 10.8454C27.5794 11.1863 28.0772 11.3633 28.5854 11.3373C28.8373 11.3375 29.0867 11.288 29.3194 11.1917C29.5521 11.0954 29.7636 10.9542 29.9417 10.7762C30.1199 10.5981 30.2612 10.3868 30.3576 10.1541C30.454 9.92142 30.5036 9.67204 30.5036 9.42019C30.5036 9.16834 30.454 8.91895 30.3576 8.68629C30.2612 8.45362 30.1199 8.24223 29.9417 8.06419C29.7636 7.88616 29.5521 7.74496 29.3194 7.64868C29.0867 7.5524 28.8373 7.50291 28.5854 7.50305C28.5194 7.49963 28.4533 7.49963 28.3873 7.50305Z" fill="white"/>
</svg>
