<svg width="45" height="27" viewBox="0 0 45 27" fill="none" xmlns="http://www.w3.org/2000/svg">
<path d="M36.9109 11.7558C36.399 11.7558 35.8962 11.8105 35.4132 11.914C34.7665 5.348 29.2378 0.200195 22.5359 0.200195C21.7425 0.200195 21.0986 0.847498 21.0986 1.64453V24.7552C21.0986 25.5524 21.7425 26.2 22.5359 26.2H36.9109C40.8755 26.2 44.0985 22.9613 44.0985 18.9778C44.0986 14.9967 40.8755 11.7558 36.9109 11.7558Z" fill="white"/>
<path d="M17.3597 3.08838C16.5667 3.08838 15.9229 3.73539 15.9229 4.53281V24.7547C15.9229 25.5519 16.5668 26.1995 17.3597 26.1995C18.1536 26.1995 18.7975 25.5519 18.7975 24.7547V4.53281C18.7975 3.73539 18.1536 3.08838 17.3597 3.08838Z" fill="white"/>
<path d="M12.1853 8.86621C11.392 8.86621 10.748 9.51342 10.748 10.3108V24.7549C10.748 25.5521 11.392 26.1997 12.1853 26.1997C12.9787 26.1997 13.6232 25.5521 13.6232 24.7549V10.3108C13.6232 9.51342 12.9787 8.86621 12.1853 8.86621Z" fill="white"/>
<path d="M7.01009 8.86621C6.21666 8.86621 5.57227 9.51342 5.57227 10.3108V24.7549C5.57227 25.5521 6.21666 26.1997 7.01009 26.1997C7.80351 26.1997 8.44743 25.5521 8.44743 24.7549V10.3108C8.44753 9.51342 7.80361 8.86621 7.01009 8.86621Z" fill="white"/>
<path d="M1.83528 13.2002C1.04138 13.2002 0.397461 13.8473 0.397461 14.6446V23.3108C0.397461 24.1082 1.04138 24.7553 1.83528 24.7553C2.62871 24.7553 3.27262 24.1082 3.27262 23.3108V14.6446C3.27262 13.8473 2.62871 13.2002 1.83528 13.2002Z" fill="white"/>
</svg>
