<svg width="40" height="40" viewBox="0 0 40 40" fill="none" xmlns="http://www.w3.org/2000/svg">
<path d="M19.8376 0.794397C19.518 0.82382 19.2109 0.938669 18.9458 1.12794C18.6807 1.31721 18.4665 1.57456 18.3237 1.87532L13.4283 12.2552L2.47728 13.9284C2.13143 13.9817 1.80672 14.1351 1.53986 14.3715C1.27299 14.6078 1.07463 14.9175 0.967174 15.2657C0.859723 15.6138 0.847474 15.9865 0.931814 16.3415C1.01615 16.6966 1.19372 17.0198 1.44443 17.2748L9.36766 25.3447L7.50004 36.7611C7.44315 37.1207 7.48317 37.4898 7.61561 37.827C7.74806 38.1641 7.96768 38.456 8.24983 38.6698C8.53198 38.8835 8.86548 39.0108 9.2129 39.0372C9.56031 39.0636 9.90788 38.9881 10.2166 38.8193L20.0074 33.4442L29.7841 38.8193C30.0932 38.9922 30.4425 39.071 30.7923 39.0466C31.142 39.0222 31.4782 38.8956 31.7627 38.6812C32.0471 38.4668 32.2684 38.1732 32.4013 37.8338C32.5343 37.4943 32.5736 37.1227 32.5148 36.7611L30.633 25.3447L38.5563 17.2748C38.807 17.0198 38.9846 16.6966 39.0689 16.3415C39.1532 15.9865 39.141 15.6138 39.0335 15.2657C38.9261 14.9175 38.7277 14.6078 38.4608 14.3715C38.194 14.1351 37.8693 13.9817 37.5234 13.9284L26.5724 12.2552L21.677 1.87532C21.5095 1.52272 21.2445 1.23104 20.9165 1.03824C20.5884 0.845454 20.2125 0.760484 19.8376 0.794397ZM20.0074 7.17629L23.6578 14.9205C23.7921 15.203 23.9895 15.4474 24.2334 15.633C24.4772 15.8187 24.7603 15.9399 25.0585 15.9866L33.2222 17.2304L27.3223 23.2569C27.1054 23.4786 26.9432 23.7521 26.8496 24.0538C26.7559 24.3556 26.7336 24.6766 26.7846 24.9893L28.1853 33.5035L20.8705 29.4907C20.602 29.3434 20.3035 29.2665 20.0004 29.2665C19.6972 29.2665 19.3987 29.3434 19.1302 29.4907L11.8295 33.5035L13.2302 24.9893C13.2794 24.6754 13.2549 24.3536 13.1588 24.0518C13.0627 23.75 12.8978 23.4772 12.6784 23.2569L6.77846 17.2304L14.9422 15.9866C15.243 15.9422 15.5289 15.8219 15.7753 15.6362C16.0218 15.4505 16.2215 15.2049 16.3571 14.9205L20.0074 7.17629Z" fill="white"/>
</svg>
