<svg width="113" height="112" viewBox="0 0 113 112" fill="none" xmlns="http://www.w3.org/2000/svg">
<path fill-rule="evenodd" clip-rule="evenodd" d="M112.624 56C112.624 86.9279 87.552 112 56.624 112C25.6961 112 0.624023 86.9279 0.624023 56C0.624023 25.0721 25.6961 0 56.624 0C87.552 0 112.624 25.0721 112.624 56ZM44.5379 80.2341C44.8234 81.2468 44.942 81.6673 46.3634 81.6673L46.3637 81.6669C47.7189 81.6642 48.34 81.0596 49.0905 80.3292L49.1544 80.2669L55.8865 73.7208L69.8877 84.0651C72.4632 85.4861 74.3215 84.7501 74.9632 81.6743L84.1495 38.3849C85.0898 34.6143 82.7122 32.9035 80.2482 34.0221L26.3062 54.8219C22.6242 56.2989 22.6461 58.3531 25.6351 59.2683L39.471 63.587L44.2317 79.2546C44.3672 79.6288 44.4589 79.9541 44.5379 80.2341Z" fill="white"/>
</svg>
