<svg width="32" height="33" viewBox="0 0 32 33" fill="none" xmlns="http://www.w3.org/2000/svg">
<path d="M16 0.5L18.2991 4.20104L21.7799 1.58044L22.5867 5.86208L26.7791 4.67586L25.9848 8.95984L30.3226 9.36819L28.0344 13.0759L31.9317 15.0237L28.4586 17.6545L31.3892 20.8786L27.2003 22.0771L28.7683 26.1422L24.4293 25.7465L24.4229 30.1035L20.5199 28.1671L18.94 32.2276L16 29.012L13.06 32.2276L11.4801 28.1671L7.57709 30.1035L7.57072 25.7465L3.23172 26.1422L4.79972 22.0771L0.610789 20.8786L3.54137 17.6545L0.0682535 15.0237L3.96564 13.0759L1.67739 9.36819L6.01521 8.95984L5.22087 4.67586L9.41328 5.86208L10.2201 1.58044L13.7009 4.20104L16 0.5Z" fill="#00AEE5"/>
<path d="M11 16.9783L14.4783 20.4565L21.4348 13.5" stroke="white" stroke-width="2" stroke-linecap="round" stroke-linejoin="round"/>
</svg>
