<svg width="113" height="112" viewBox="0 0 113 112" fill="none" xmlns="http://www.w3.org/2000/svg">
<path fill-rule="evenodd" clip-rule="evenodd" d="M73.7974 0H39.4507C8.09069 0 0.624023 7.46667 0.624023 38.8267V73.1733C0.624023 104.533 8.09069 112 39.4507 112H73.7974C105.157 112 112.624 104.533 112.624 73.1733V38.8267C112.624 7.46667 105.157 0 73.7974 0ZM89.868 35.583C92.3377 35.583 92.8566 36.8545 92.3377 38.585C91.2995 43.3435 81.3495 57.3597 81.3495 57.3597C80.4844 58.7439 80.1383 59.4362 81.3495 60.9934C81.7761 61.5907 82.6864 62.4823 83.7278 63.5024C84.7987 64.5515 86.0084 65.7364 86.9735 66.8769C90.4815 70.8234 93.1252 74.1527 93.8617 76.4473C94.5347 78.7497 93.368 79.9163 91.0347 79.9163H82.868C80.6806 79.9163 79.5791 78.6911 77.199 76.0434C76.1902 74.9212 74.9516 73.5434 73.3033 71.895C68.4581 67.223 66.3816 66.6173 65.1704 66.6173C63.5265 66.6173 63.0347 67.083 63.0347 69.4163V76.7401C63.0347 78.7497 62.3925 79.9163 57.2014 79.9163C48.5494 79.9163 39.0413 74.6636 32.2928 64.9735C22.17 50.7842 19.4014 40.0557 19.4014 37.8927C19.4014 36.6814 19.8681 35.583 22.2014 35.583H30.3681C32.4552 35.583 33.2403 36.4965 34.0231 38.7579C38.0173 50.3929 44.7517 60.5611 47.5203 60.5611C48.5585 60.5611 49.0347 60.083 49.0347 57.4463V45.42C48.8473 41.9966 47.6514 40.5162 46.7657 39.4196C46.2187 38.7425 45.79 38.2117 45.79 37.4602C45.79 36.5468 46.5704 35.583 47.868 35.583H60.7014C62.432 35.583 63.0346 36.5085 63.0346 38.585V54.7642C63.0346 56.4944 63.786 57.1001 64.3051 57.1001C65.3433 57.1001 66.2086 56.4944 68.112 54.591C73.9953 48.0156 78.1484 37.8927 78.1484 37.8927C78.6676 36.6814 79.6249 35.583 81.7014 35.583H89.868Z" fill="white"/>
</svg>
