<svg width="58" height="46" viewBox="0 0 58 46" fill="none" xmlns="http://www.w3.org/2000/svg">
<path fill-rule="evenodd" clip-rule="evenodd" d="M49.7112 9.24731C51.0902 10.6059 51.5389 13.6917 51.5389 13.6917C51.5389 13.6917 51.999 17.3124 51.999 20.9345V24.3285C51.999 27.9505 51.5389 31.5713 51.5389 31.5713C51.5389 31.5713 51.0888 34.6558 49.7112 36.0117C48.1336 37.6173 46.3853 37.7839 45.3978 37.878C45.2899 37.8883 45.1911 37.8977 45.1026 37.908C38.6649 38.3578 28.999 38.3736 28.999 38.3736C28.999 38.3736 17.0382 38.2674 13.3584 37.9238C13.1843 37.8921 12.9733 37.8674 12.7344 37.8394C11.5691 37.7028 9.74028 37.4884 8.2868 36.0104C6.90781 34.6544 6.45917 31.57 6.45917 31.57C6.45917 31.57 5.99902 27.9505 5.99902 24.3271V20.9332C5.99902 17.3124 6.45917 13.6917 6.45917 13.6917C6.45917 13.6917 6.90925 10.6059 8.2868 9.24731C9.8714 7.63606 11.6255 7.474 12.6109 7.38296C12.7146 7.37337 12.8098 7.36458 12.8954 7.35496C19.3317 6.8999 28.9875 6.8999 28.9875 6.8999H29.0091C29.0091 6.8999 38.6649 6.8999 45.1026 7.35496C45.1883 7.36458 45.2835 7.37338 45.3873 7.38297C46.3729 7.47401 48.128 7.63613 49.7112 9.24731ZM37.6337 22.6367L23.2543 30.5051V14.7682L37.6337 22.6367Z" fill="white"/>
</svg>
